# xmcd
#
# Track frame offsets:
#	150
#	43049
#	84105
#	110229
#	169614
#
# Disc length: 2763 seconds
#
# Revision: 1
# Processed by: cddbd v1.5.1PL0 Copyright (c) Steve Scherf et al.
# Submitted via: audiograbber 1.83.01
#
DISCID=350ac905
DTITLE=Itäväylä - Itäväylä
DYEAR=2005
DGENRE=Country
TTITLE0=Black Diamond Express
TTITLE1=Tesco
TTITLE2=Future Boogie
TTITLE3=Jeesus Kristus
TTITLE4=Black Diamond Express jori hulkkonen remix
EXTD=
EXTT0=
EXTT1=
EXTT2=
EXTT3=
EXTT4=
PLAYORDER=
